G04*
G04 #@! TF.GenerationSoftware,Altium Limited,Altium Designer,22.5.1 (42)*
G04*
G04 Layer_Color=8388736*
%FSLAX25Y25*%
%MOIN*%
G70*
G04*
G04 #@! TF.SameCoordinates,F388C647-0276-4BD7-974E-F153A5A87125*
G04*
G04*
G04 #@! TF.FilePolarity,Negative*
G04*
G01*
G75*
G04:AMPARAMS|DCode=15|XSize=139.76mil|YSize=351.12mil|CornerRadius=0mil|HoleSize=0mil|Usage=FLASHONLY|Rotation=225.000|XOffset=0mil|YOffset=0mil|HoleType=Round|Shape=Rectangle|*
%AMROTATEDRECTD15*
4,1,4,-0.07472,0.17355,0.17355,-0.07472,0.07472,-0.17355,-0.17355,0.07472,-0.07472,0.17355,0.0*
%
%ADD15ROTATEDRECTD15*%

%ADD16R,0.13976X0.52067*%
%ADD17R,0.13976X0.54232*%
%ADD18R,0.13976X0.73327*%
%ADD19R,0.14665X0.54232*%
%ADD20R,0.60039X0.21654*%
%ADD21R,0.03162X0.02375*%
%ADD22R,0.02375X0.03162*%
G04:AMPARAMS|DCode=23|XSize=31.62mil|YSize=23.75mil|CornerRadius=0mil|HoleSize=0mil|Usage=FLASHONLY|Rotation=315.000|XOffset=0mil|YOffset=0mil|HoleType=Round|Shape=Rectangle|*
%AMROTATEDRECTD23*
4,1,4,-0.01958,0.00278,-0.00278,0.01958,0.01958,-0.00278,0.00278,-0.01958,-0.01958,0.00278,0.0*
%
%ADD23ROTATEDRECTD23*%

%ADD24R,0.05131X0.03162*%
%ADD25R,0.16548X0.09068*%
G04:AMPARAMS|DCode=26|XSize=67.06mil|YSize=39.5mil|CornerRadius=0mil|HoleSize=0mil|Usage=FLASHONLY|Rotation=135.000|XOffset=0mil|YOffset=0mil|HoleType=Round|Shape=Rectangle|*
%AMROTATEDRECTD26*
4,1,4,0.03767,-0.00974,0.00974,-0.03767,-0.03767,0.00974,-0.00974,0.03767,0.03767,-0.00974,0.0*
%
%ADD26ROTATEDRECTD26*%

G04:AMPARAMS|DCode=27|XSize=31.62mil|YSize=23.75mil|CornerRadius=0mil|HoleSize=0mil|Usage=FLASHONLY|Rotation=225.000|XOffset=0mil|YOffset=0mil|HoleType=Round|Shape=Rectangle|*
%AMROTATEDRECTD27*
4,1,4,0.00278,0.01958,0.01958,0.00278,-0.00278,-0.01958,-0.01958,-0.00278,0.00278,0.01958,0.0*
%
%ADD27ROTATEDRECTD27*%

G04:AMPARAMS|DCode=28|XSize=70.99mil|YSize=19.81mil|CornerRadius=0mil|HoleSize=0mil|Usage=FLASHONLY|Rotation=45.000|XOffset=0mil|YOffset=0mil|HoleType=Round|Shape=Rectangle|*
%AMROTATEDRECTD28*
4,1,4,-0.01810,-0.03210,-0.03210,-0.01810,0.01810,0.03210,0.03210,0.01810,-0.01810,-0.03210,0.0*
%
%ADD28ROTATEDRECTD28*%

G04:AMPARAMS|DCode=29|XSize=70.99mil|YSize=19.81mil|CornerRadius=0mil|HoleSize=0mil|Usage=FLASHONLY|Rotation=135.000|XOffset=0mil|YOffset=0mil|HoleType=Round|Shape=Rectangle|*
%AMROTATEDRECTD29*
4,1,4,0.03210,-0.01810,0.01810,-0.03210,-0.03210,0.01810,-0.01810,0.03210,0.03210,-0.01810,0.0*
%
%ADD29ROTATEDRECTD29*%

G04:AMPARAMS|DCode=30|XSize=47.37mil|YSize=35.56mil|CornerRadius=0mil|HoleSize=0mil|Usage=FLASHONLY|Rotation=225.000|XOffset=0mil|YOffset=0mil|HoleType=Round|Shape=Rectangle|*
%AMROTATEDRECTD30*
4,1,4,0.00418,0.02932,0.02932,0.00418,-0.00418,-0.02932,-0.02932,-0.00418,0.00418,0.02932,0.0*
%
%ADD30ROTATEDRECTD30*%

%ADD31R,0.23241X0.07887*%
%ADD32R,0.03556X0.05131*%
G04:AMPARAMS|DCode=33|XSize=31.62mil|YSize=51.31mil|CornerRadius=0mil|HoleSize=0mil|Usage=FLASHONLY|Rotation=45.000|XOffset=0mil|YOffset=0mil|HoleType=Round|Shape=Rectangle|*
%AMROTATEDRECTD33*
4,1,4,0.00696,-0.02932,-0.02932,0.00696,-0.00696,0.02932,0.02932,-0.00696,0.00696,-0.02932,0.0*
%
%ADD33ROTATEDRECTD33*%

G04:AMPARAMS|DCode=34|XSize=74.8mil|YSize=94.49mil|CornerRadius=2.99mil|HoleSize=0mil|Usage=FLASHONLY|Rotation=180.000|XOffset=0mil|YOffset=0mil|HoleType=Round|Shape=RoundedRectangle|*
%AMROUNDEDRECTD34*
21,1,0.07480,0.08850,0,0,180.0*
21,1,0.06882,0.09449,0,0,180.0*
1,1,0.00598,-0.03441,0.04425*
1,1,0.00598,0.03441,0.04425*
1,1,0.00598,0.03441,-0.04425*
1,1,0.00598,-0.03441,-0.04425*
%
%ADD34ROUNDEDRECTD34*%
%ADD35R,0.04737X0.08674*%
G04:AMPARAMS|DCode=36|XSize=47.37mil|YSize=35.56mil|CornerRadius=0mil|HoleSize=0mil|Usage=FLASHONLY|Rotation=135.000|XOffset=0mil|YOffset=0mil|HoleType=Round|Shape=Rectangle|*
%AMROTATEDRECTD36*
4,1,4,0.02932,-0.00418,0.00418,-0.02932,-0.02932,0.00418,-0.00418,0.02932,0.02932,-0.00418,0.0*
%
%ADD36ROTATEDRECTD36*%

%ADD37R,0.05524X0.05524*%
%ADD38R,0.01981X0.06706*%
G04:AMPARAMS|DCode=39|XSize=39.5mil|YSize=43.43mil|CornerRadius=6.84mil|HoleSize=0mil|Usage=FLASHONLY|Rotation=270.000|XOffset=0mil|YOffset=0mil|HoleType=Round|Shape=RoundedRectangle|*
%AMROUNDEDRECTD39*
21,1,0.03950,0.02976,0,0,270.0*
21,1,0.02583,0.04343,0,0,270.0*
1,1,0.01367,-0.01488,-0.01291*
1,1,0.01367,-0.01488,0.01291*
1,1,0.01367,0.01488,0.01291*
1,1,0.01367,0.01488,-0.01291*
%
%ADD39ROUNDEDRECTD39*%
G04:AMPARAMS|DCode=40|XSize=39.5mil|YSize=43.43mil|CornerRadius=6.84mil|HoleSize=0mil|Usage=FLASHONLY|Rotation=0.000|XOffset=0mil|YOffset=0mil|HoleType=Round|Shape=RoundedRectangle|*
%AMROUNDEDRECTD40*
21,1,0.03950,0.02976,0,0,0.0*
21,1,0.02583,0.04343,0,0,0.0*
1,1,0.01367,0.01291,-0.01488*
1,1,0.01367,-0.01291,-0.01488*
1,1,0.01367,-0.01291,0.01488*
1,1,0.01367,0.01291,0.01488*
%
%ADD40ROUNDEDRECTD40*%
%ADD41R,0.06706X0.03950*%
%ADD42R,0.03950X0.06706*%
%ADD43O,0.11430X0.12611*%
%ADD44R,0.11824X0.11824*%
%ADD45C,0.06706*%
%ADD46C,0.07099*%
%ADD47C,0.24816*%
%ADD48C,0.08674*%
%ADD49C,0.04343*%
%ADD50C,0.04737*%
%ADD51C,0.03162*%
G36*
X248122Y413484D02*
X249107D01*
X251039Y413100D01*
X252858Y412346D01*
X254496Y411252D01*
X255193Y410555D01*
X255193Y410555D01*
X255807Y409941D01*
X256299Y409449D01*
X257071Y408294D01*
X257603Y407009D01*
X257874Y405646D01*
Y404951D01*
D01*
Y385933D01*
Y384949D01*
X257490Y383017D01*
X256736Y381197D01*
X255642Y379559D01*
X254945Y378862D01*
X254945D01*
X254823Y378740D01*
X254230Y378147D01*
X252836Y377216D01*
X251287Y376574D01*
X249643Y376247D01*
X248804D01*
D01*
X230774D01*
X230134D01*
X228879Y376497D01*
X227697Y376987D01*
X226633Y377697D01*
X226181Y378150D01*
X226134Y378196D01*
X226061Y378307D01*
X226010Y378429D01*
X225984Y378559D01*
Y378625D01*
D01*
Y410918D01*
Y411084D01*
X226049Y411408D01*
X226175Y411714D01*
X226359Y411989D01*
X226476Y412106D01*
X226804Y412434D01*
X227575Y412949D01*
X228431Y413303D01*
X229340Y413484D01*
X229803D01*
D01*
X231102D01*
D01*
X248122D01*
D02*
G37*
G36*
X244578Y453642D02*
X245563D01*
X247495Y453257D01*
X249315Y452504D01*
X250953Y451409D01*
X251649Y450713D01*
X251649Y450713D01*
X254158Y448205D01*
X254854Y447508D01*
X255948Y445870D01*
X256702Y444050D01*
X257087Y442118D01*
Y441133D01*
D01*
Y429733D01*
Y428748D01*
X256702Y426816D01*
X255948Y424996D01*
X254854Y423358D01*
X254158Y422662D01*
X254158D01*
X253740Y422244D01*
X253319Y421823D01*
X252328Y421161D01*
X251227Y420705D01*
X250059Y420472D01*
X249463D01*
D01*
X230533D01*
X230036D01*
X229063Y420666D01*
X228145Y421046D01*
X227320Y421598D01*
X226969Y421949D01*
X226688Y422230D01*
X226246Y422890D01*
X225942Y423624D01*
X225787Y424403D01*
Y424800D01*
D01*
Y449175D01*
Y449605D01*
X225955Y450449D01*
X226285Y451244D01*
X226763Y451960D01*
X227067Y452264D01*
Y452264D01*
X228097Y453294D01*
X228180Y453376D01*
X228374Y453507D01*
X228590Y453596D01*
X228820Y453642D01*
X228937D01*
D01*
D01*
X244578D01*
D02*
G37*
D15*
X584810Y231095D02*
D03*
D16*
X595177Y197589D02*
D03*
D17*
X485728Y202707D02*
D03*
X375197Y209793D02*
D03*
X377264Y396900D02*
D03*
D18*
X270965Y409006D02*
D03*
D19*
X485581Y397884D02*
D03*
D20*
X535918Y339366D02*
D03*
Y302506D02*
D03*
Y265646D02*
D03*
X450288Y339071D02*
D03*
Y302210D02*
D03*
Y265350D02*
D03*
X367906Y339071D02*
D03*
Y302210D02*
D03*
Y265350D02*
D03*
X288976Y266064D02*
D03*
Y302924D02*
D03*
Y339785D02*
D03*
D21*
X438477Y438710D02*
D03*
Y436147D02*
D03*
Y433563D02*
D03*
X446063D02*
D03*
Y438710D02*
D03*
X438386Y445866D02*
D03*
X438386Y442323D02*
D03*
X431144Y427328D02*
D03*
X431144Y430871D02*
D03*
X449803Y444390D02*
D03*
X449803Y447933D02*
D03*
X434841Y427273D02*
D03*
Y430816D02*
D03*
X461908Y423926D02*
D03*
X461908Y420383D02*
D03*
Y429832D02*
D03*
Y426289D02*
D03*
X452360Y401584D02*
D03*
Y398041D02*
D03*
X437400Y414675D02*
D03*
X437400Y411131D02*
D03*
X458758Y423926D02*
D03*
Y420383D02*
D03*
X448817Y401682D02*
D03*
X448817Y398139D02*
D03*
X549606Y441834D02*
D03*
Y439272D02*
D03*
Y436687D02*
D03*
X557193Y436687D02*
D03*
Y441834D02*
D03*
X545276Y447342D02*
D03*
Y443799D02*
D03*
X541284Y427723D02*
D03*
X541283Y431266D02*
D03*
X560138Y448130D02*
D03*
X560138Y451673D02*
D03*
X544980Y427668D02*
D03*
Y431211D02*
D03*
X572047Y424322D02*
D03*
Y420778D02*
D03*
Y430227D02*
D03*
X572047Y426684D02*
D03*
X562500Y401979D02*
D03*
X562500Y398436D02*
D03*
X547539Y415070D02*
D03*
Y411526D02*
D03*
X568898Y424322D02*
D03*
X568898Y420778D02*
D03*
X558957Y402078D02*
D03*
X558957Y398534D02*
D03*
X534154Y153248D02*
D03*
Y156791D02*
D03*
X534252Y160036D02*
D03*
Y162598D02*
D03*
Y165183D02*
D03*
X526666D02*
D03*
Y160036D02*
D03*
X541043Y172638D02*
D03*
Y169095D02*
D03*
X525394Y152067D02*
D03*
Y148524D02*
D03*
X537347Y172693D02*
D03*
Y169150D02*
D03*
X510280Y176039D02*
D03*
Y179583D02*
D03*
Y170134D02*
D03*
Y173677D02*
D03*
X519827Y198382D02*
D03*
Y201925D02*
D03*
X534787Y185291D02*
D03*
Y188835D02*
D03*
X513429Y176039D02*
D03*
Y179583D02*
D03*
X523370Y198284D02*
D03*
Y201827D02*
D03*
X423827Y159813D02*
D03*
Y162376D02*
D03*
Y164961D02*
D03*
X416240D02*
D03*
Y159813D02*
D03*
X427516Y151913D02*
D03*
Y155457D02*
D03*
X431453Y172484D02*
D03*
Y168941D02*
D03*
X413779Y152953D02*
D03*
Y149409D02*
D03*
X427756Y172539D02*
D03*
Y168996D02*
D03*
X400689Y175886D02*
D03*
Y179429D02*
D03*
Y169980D02*
D03*
Y173524D02*
D03*
X410236Y198228D02*
D03*
Y201772D02*
D03*
X425197Y188681D02*
D03*
Y185138D02*
D03*
X403839Y175886D02*
D03*
Y179429D02*
D03*
X413779Y198130D02*
D03*
Y201673D02*
D03*
X312697Y161118D02*
D03*
Y163681D02*
D03*
Y166265D02*
D03*
X305111Y166265D02*
D03*
Y161118D02*
D03*
X329028Y440876D02*
D03*
Y438313D02*
D03*
Y435728D02*
D03*
X336614D02*
D03*
Y440876D02*
D03*
X670768Y169587D02*
D03*
Y173130D02*
D03*
X682283Y277854D02*
D03*
Y274311D02*
D03*
X667224Y232480D02*
D03*
Y236024D02*
D03*
X659252Y249508D02*
D03*
X340158Y450197D02*
D03*
X312894Y154823D02*
D03*
Y158366D02*
D03*
X321075Y172626D02*
D03*
Y169083D02*
D03*
X304134Y151969D02*
D03*
Y148425D02*
D03*
X317378Y172681D02*
D03*
Y169138D02*
D03*
X290311Y176028D02*
D03*
Y179571D02*
D03*
X290256Y170079D02*
D03*
Y173622D02*
D03*
X299858Y198370D02*
D03*
Y201913D02*
D03*
X314819Y185280D02*
D03*
Y188823D02*
D03*
X293461Y176028D02*
D03*
Y179571D02*
D03*
X303402Y198272D02*
D03*
Y201815D02*
D03*
X667126Y243406D02*
D03*
Y239862D02*
D03*
X679232Y235827D02*
D03*
X679232Y232283D02*
D03*
X675591Y239075D02*
D03*
X675591Y242618D02*
D03*
X329134Y448032D02*
D03*
X329134Y444488D02*
D03*
X321205Y427458D02*
D03*
Y431001D02*
D03*
X340158Y446654D02*
D03*
X324902Y427402D02*
D03*
X324902Y430946D02*
D03*
X351969Y424056D02*
D03*
X351969Y420513D02*
D03*
X351969Y429961D02*
D03*
X351969Y426418D02*
D03*
X342421Y398170D02*
D03*
X342421Y401713D02*
D03*
X327461Y414804D02*
D03*
Y411261D02*
D03*
X348819Y424056D02*
D03*
X348819Y420513D02*
D03*
X338878Y398269D02*
D03*
Y401812D02*
D03*
X261614Y147441D02*
D03*
Y143898D02*
D03*
X659252Y245965D02*
D03*
X675984Y184646D02*
D03*
Y181102D02*
D03*
X679035Y174016D02*
D03*
Y170472D02*
D03*
X687205Y333661D02*
D03*
Y337205D02*
D03*
X251576Y187229D02*
D03*
X251576Y183686D02*
D03*
X241339Y143922D02*
D03*
X241339Y147465D02*
D03*
X241438Y183686D02*
D03*
X241438Y180142D02*
D03*
X261713Y183686D02*
D03*
Y180142D02*
D03*
X248623Y143922D02*
D03*
Y147465D02*
D03*
X244883D02*
D03*
X244883Y143922D02*
D03*
X258072Y147465D02*
D03*
Y143922D02*
D03*
X254528D02*
D03*
Y147465D02*
D03*
X248623Y180142D02*
D03*
X248623Y183686D02*
D03*
X244981D02*
D03*
Y180142D02*
D03*
X258170Y183686D02*
D03*
X258170Y180142D02*
D03*
X254627D02*
D03*
Y183686D02*
D03*
X301241Y459842D02*
D03*
Y456299D02*
D03*
X293761Y456299D02*
D03*
Y459842D02*
D03*
X297009Y456299D02*
D03*
Y459842D02*
D03*
X688681Y401772D02*
D03*
Y405315D02*
D03*
X685039D02*
D03*
X685039Y401772D02*
D03*
D22*
X440453Y427559D02*
D03*
X443996D02*
D03*
X437500Y404626D02*
D03*
X441043D02*
D03*
X442028Y441831D02*
D03*
X445571Y441831D02*
D03*
X440453Y430610D02*
D03*
X443996D02*
D03*
X448620Y393808D02*
D03*
X452164Y393808D02*
D03*
X452360Y424320D02*
D03*
X455904Y424320D02*
D03*
X437400Y420875D02*
D03*
X433857D02*
D03*
X439860Y420875D02*
D03*
X443404Y420875D02*
D03*
X452360Y420679D02*
D03*
X455904D02*
D03*
X448620Y404537D02*
D03*
X452164D02*
D03*
X449506Y420875D02*
D03*
X445963Y420875D02*
D03*
X551575Y431004D02*
D03*
X555118D02*
D03*
X547539Y404921D02*
D03*
X551083Y404921D02*
D03*
X553642Y444685D02*
D03*
X557185Y444685D02*
D03*
X551575Y433760D02*
D03*
X555118D02*
D03*
X558760Y394203D02*
D03*
X562303Y394203D02*
D03*
X562500Y424715D02*
D03*
X566043D02*
D03*
X547539Y421271D02*
D03*
X543996D02*
D03*
X550000Y421271D02*
D03*
X553543Y421271D02*
D03*
X562500Y421074D02*
D03*
X566043Y421074D02*
D03*
X558760Y404932D02*
D03*
X562303Y404932D02*
D03*
X559646Y421271D02*
D03*
X556102Y421271D02*
D03*
X532185Y171260D02*
D03*
X528642D02*
D03*
X534547Y191732D02*
D03*
X538091D02*
D03*
X530512Y157382D02*
D03*
X526968D02*
D03*
X532185Y168209D02*
D03*
X528642D02*
D03*
X523567Y206157D02*
D03*
X520024D02*
D03*
X519827Y175646D02*
D03*
X516284D02*
D03*
X534787Y179091D02*
D03*
X538331D02*
D03*
X532327Y179091D02*
D03*
X528783D02*
D03*
X519827Y179287D02*
D03*
X516283D02*
D03*
X523567Y195429D02*
D03*
X520024D02*
D03*
X522681Y179091D02*
D03*
X526224D02*
D03*
X421949Y171653D02*
D03*
X418405D02*
D03*
X424957Y191579D02*
D03*
X428500D02*
D03*
X420276Y156988D02*
D03*
X416732D02*
D03*
X421949Y168307D02*
D03*
X418405D02*
D03*
X413976Y206004D02*
D03*
X410433D02*
D03*
X410236Y175492D02*
D03*
X406693D02*
D03*
X425197Y178937D02*
D03*
X428740D02*
D03*
X422736Y178937D02*
D03*
X419193D02*
D03*
X410236Y179134D02*
D03*
X406693D02*
D03*
X413976Y195276D02*
D03*
X410433D02*
D03*
X413091Y178937D02*
D03*
X416634D02*
D03*
X310531Y169390D02*
D03*
X306988D02*
D03*
X331102Y432972D02*
D03*
X334646D02*
D03*
X653150Y333465D02*
D03*
X649606D02*
D03*
X653248Y313976D02*
D03*
X649705D02*
D03*
X310531Y172539D02*
D03*
X306988D02*
D03*
X314579Y191720D02*
D03*
X318122D02*
D03*
X308760Y157579D02*
D03*
X305217D02*
D03*
X303598Y206146D02*
D03*
X300055D02*
D03*
X299858Y175634D02*
D03*
X296315D02*
D03*
X314819Y179079D02*
D03*
X318362D02*
D03*
X312358Y179079D02*
D03*
X308815D02*
D03*
X299858Y179276D02*
D03*
X296315D02*
D03*
X303598Y195417D02*
D03*
X300055D02*
D03*
X302713Y179079D02*
D03*
X306256D02*
D03*
X649213Y241240D02*
D03*
X652756D02*
D03*
X683555Y298962D02*
D03*
X680012D02*
D03*
X680020Y302559D02*
D03*
X683563D02*
D03*
X331102Y430020D02*
D03*
X334646Y430020D02*
D03*
X327461Y404626D02*
D03*
X331004D02*
D03*
X333169Y444095D02*
D03*
X336713Y444095D02*
D03*
X338681Y393938D02*
D03*
X342224Y393938D02*
D03*
X342421Y424450D02*
D03*
X345965Y424450D02*
D03*
X323917Y421005D02*
D03*
X327461Y421005D02*
D03*
X333465Y421005D02*
D03*
X329921Y421005D02*
D03*
X342421Y420808D02*
D03*
X345965D02*
D03*
X342224Y404666D02*
D03*
X338681D02*
D03*
X336024Y421005D02*
D03*
X339567Y421005D02*
D03*
X665748Y324926D02*
D03*
X669291D02*
D03*
X679626D02*
D03*
X676083D02*
D03*
X654331Y241240D02*
D03*
X657874D02*
D03*
X266732Y198524D02*
D03*
X263189D02*
D03*
X676870Y393209D02*
D03*
X680413D02*
D03*
D23*
X634028Y257355D02*
D03*
X631523Y254850D02*
D03*
X635361Y250913D02*
D03*
X637867Y253418D02*
D03*
X641607Y249087D02*
D03*
X639102Y246582D02*
D03*
X639092Y154544D02*
D03*
X641597Y157050D02*
D03*
X627586Y258491D02*
D03*
X630091Y260997D02*
D03*
X627615Y148982D02*
D03*
X630121Y151488D02*
D03*
X629773Y146825D02*
D03*
X632278Y149330D02*
D03*
X648912Y138682D02*
D03*
X646406Y136176D02*
D03*
X626056Y264835D02*
D03*
X623550Y262330D02*
D03*
X660082Y300702D02*
D03*
X662588Y303208D02*
D03*
Y298197D02*
D03*
X665093Y300702D02*
D03*
X672502Y256957D02*
D03*
X669997Y254451D02*
D03*
D24*
X452246Y409064D02*
D03*
Y412805D02*
D03*
Y416545D02*
D03*
X442010Y416446D02*
D03*
Y412706D02*
D03*
Y408966D02*
D03*
X562386Y409459D02*
D03*
X562386Y413200D02*
D03*
Y416940D02*
D03*
X552150Y416841D02*
D03*
X552150Y413101D02*
D03*
Y409361D02*
D03*
X519941Y190902D02*
D03*
Y187161D02*
D03*
Y183421D02*
D03*
X530177Y183520D02*
D03*
Y187260D02*
D03*
Y191000D02*
D03*
X410350Y190748D02*
D03*
Y187008D02*
D03*
Y183268D02*
D03*
X420587Y183366D02*
D03*
Y187106D02*
D03*
Y190847D02*
D03*
X299972Y190890D02*
D03*
Y187150D02*
D03*
Y183409D02*
D03*
X310209Y183508D02*
D03*
Y187248D02*
D03*
Y190988D02*
D03*
X332071Y409095D02*
D03*
X332071Y412835D02*
D03*
X332071Y416576D02*
D03*
X342307Y416674D02*
D03*
X342307Y412934D02*
D03*
X342307Y409194D02*
D03*
X670177Y397736D02*
D03*
Y401476D02*
D03*
Y405217D02*
D03*
X680413Y405315D02*
D03*
X680413Y401575D02*
D03*
Y397835D02*
D03*
D25*
X400392Y402962D02*
D03*
X400392Y427371D02*
D03*
X418502Y402962D02*
D03*
Y427371D02*
D03*
X510532Y403357D02*
D03*
Y427767D02*
D03*
X528642Y403357D02*
D03*
Y427767D02*
D03*
X571795Y197004D02*
D03*
Y172594D02*
D03*
X553685Y197004D02*
D03*
Y172594D02*
D03*
X462205Y196850D02*
D03*
Y172441D02*
D03*
X444095Y196850D02*
D03*
Y172441D02*
D03*
X351827Y196992D02*
D03*
Y172583D02*
D03*
X333717Y196992D02*
D03*
Y172583D02*
D03*
X290453Y427501D02*
D03*
Y403091D02*
D03*
X308563Y427501D02*
D03*
Y403091D02*
D03*
D26*
X623926Y133462D02*
D03*
X629494Y139030D02*
D03*
X629634Y127755D02*
D03*
X635201Y133323D02*
D03*
D27*
X680485Y263216D02*
D03*
X677980Y265721D02*
D03*
X644666Y148913D02*
D03*
X642161Y151418D02*
D03*
X646894Y151140D02*
D03*
X644388Y153645D02*
D03*
X652514Y253588D02*
D03*
X655020Y251083D02*
D03*
X632035Y287409D02*
D03*
X629529Y289915D02*
D03*
X634540Y289915D02*
D03*
X632035Y292420D02*
D03*
D28*
X634890Y272319D02*
D03*
X636282Y270927D02*
D03*
X637674Y269535D02*
D03*
X639066Y268143D02*
D03*
X640457Y266751D02*
D03*
X641849Y265359D02*
D03*
X643241Y263967D02*
D03*
X644633Y262575D02*
D03*
X646025Y261183D02*
D03*
X647417Y259791D02*
D03*
X648809Y258399D02*
D03*
X650201Y257007D02*
D03*
X673032Y279838D02*
D03*
X671640Y281230D02*
D03*
X670248Y282622D02*
D03*
X668856Y284014D02*
D03*
X667464Y285406D02*
D03*
X666072Y286797D02*
D03*
X664680Y288190D02*
D03*
X663288Y289581D02*
D03*
X661896Y290973D02*
D03*
X660504Y292365D02*
D03*
X659112Y293757D02*
D03*
X657720Y295149D02*
D03*
D29*
Y257077D02*
D03*
X659112Y258469D02*
D03*
X660504Y259861D02*
D03*
X661896Y261253D02*
D03*
X663288Y262645D02*
D03*
X664680Y264036D02*
D03*
X666072Y265428D02*
D03*
X667464Y266820D02*
D03*
X668856Y268212D02*
D03*
X670248Y269604D02*
D03*
X671640Y270996D02*
D03*
X673032Y272388D02*
D03*
X650201Y295219D02*
D03*
X648809Y293827D02*
D03*
X647417Y292435D02*
D03*
X646025Y291043D02*
D03*
X644633Y289651D02*
D03*
X643241Y288259D02*
D03*
X641849Y286867D02*
D03*
X640457Y285475D02*
D03*
X639066Y284083D02*
D03*
X637674Y282691D02*
D03*
X636282Y281299D02*
D03*
X634890Y279907D02*
D03*
D30*
X623405Y297153D02*
D03*
X627859Y292699D02*
D03*
X621595Y291585D02*
D03*
X626049Y287131D02*
D03*
D31*
X671358Y367815D02*
D03*
X671358Y385925D02*
D03*
D32*
X653346Y318602D02*
D03*
X645866D02*
D03*
Y328839D02*
D03*
X653346D02*
D03*
X649606D02*
D03*
D33*
X645502Y141953D02*
D03*
X642857Y139308D02*
D03*
X640212Y136664D02*
D03*
X632904Y143832D02*
D03*
X635549Y146477D02*
D03*
X638194Y149121D02*
D03*
D34*
X680905Y315477D02*
D03*
X664764Y315477D02*
D03*
D35*
X681102Y413287D02*
D03*
X669291Y413287D02*
D03*
D36*
X671110Y249440D02*
D03*
X675564Y253894D02*
D03*
D37*
X687205Y349705D02*
D03*
Y341437D02*
D03*
D38*
X259253Y153075D02*
D03*
X256694D02*
D03*
X254135D02*
D03*
X251576D02*
D03*
X249017D02*
D03*
X246458D02*
D03*
X243899D02*
D03*
Y175123D02*
D03*
X246458D02*
D03*
X249017D02*
D03*
X251576Y175123D02*
D03*
X254135Y175123D02*
D03*
X256694Y175123D02*
D03*
X259253Y175123D02*
D03*
D39*
X280867Y460138D02*
D03*
X289528Y463878D02*
D03*
X289528Y456398D02*
D03*
D40*
X653248Y228248D02*
D03*
X649508Y236910D02*
D03*
X656988D02*
D03*
D41*
X259842Y203543D02*
D03*
Y211417D02*
D03*
X268898Y203543D02*
D03*
Y211417D02*
D03*
D42*
X289627Y472244D02*
D03*
X281753D02*
D03*
X665059Y350394D02*
D03*
X672933D02*
D03*
X665059Y358465D02*
D03*
X672933D02*
D03*
D43*
X409646Y383071D02*
D03*
X431146Y383071D02*
D03*
X519575Y383071D02*
D03*
X541075Y383071D02*
D03*
X562236Y217083D02*
D03*
X540736D02*
D03*
X452646Y216929D02*
D03*
X431146D02*
D03*
X320768Y217071D02*
D03*
X342268D02*
D03*
X299716Y383071D02*
D03*
X321217D02*
D03*
D44*
X452646D02*
D03*
X562575Y383071D02*
D03*
X519236Y217083D02*
D03*
X409646Y216929D02*
D03*
X299268Y217071D02*
D03*
X342717Y383071D02*
D03*
D45*
X595472Y493307D02*
D03*
X605472D02*
D03*
X584311Y493405D02*
D03*
X574311D02*
D03*
X272656Y461156D02*
D03*
Y471156D02*
D03*
D46*
X660433Y160138D02*
D03*
X670433Y150138D02*
D03*
X660433Y140138D02*
D03*
X686221Y188445D02*
D03*
Y178445D02*
D03*
Y168445D02*
D03*
Y158445D02*
D03*
Y148445D02*
D03*
Y138445D02*
D03*
D47*
X240158Y395232D02*
D03*
Y434490D02*
D03*
D48*
X671949Y214157D02*
D03*
X646358D02*
D03*
Y195259D02*
D03*
X671949D02*
D03*
X678445Y433071D02*
D03*
Y452756D02*
D03*
X645691Y484252D02*
D03*
X626006D02*
D03*
D49*
X237206Y174512D02*
D03*
X237206Y169512D02*
D03*
X237402Y159276D02*
D03*
Y154276D02*
D03*
X265749Y168430D02*
D03*
Y173430D02*
D03*
Y158863D02*
D03*
Y153863D02*
D03*
D50*
X268701Y232087D02*
D03*
D51*
X623622Y334367D02*
D03*
X593209Y129429D02*
D03*
X649606Y132480D02*
D03*
X649902Y134646D02*
D03*
X673327Y144783D02*
D03*
X679134Y165354D02*
D03*
X414173Y478543D02*
D03*
X462402Y477658D02*
D03*
X523721Y477854D02*
D03*
X590748Y129429D02*
D03*
X598517Y128133D02*
D03*
X600886Y128150D02*
D03*
X507185Y126279D02*
D03*
X535024Y175142D02*
D03*
X327461Y427264D02*
D03*
X336713Y462992D02*
D03*
Y468701D02*
D03*
X547441Y427658D02*
D03*
X437008Y427165D02*
D03*
X443504Y472244D02*
D03*
X443405Y458661D02*
D03*
X382677Y382677D02*
D03*
X385039Y377953D02*
D03*
X387402Y382677D02*
D03*
X392126D02*
D03*
X389764Y377953D02*
D03*
X394488D02*
D03*
X385039Y387402D02*
D03*
X389764D02*
D03*
X394488D02*
D03*
X382677Y392126D02*
D03*
X387402D02*
D03*
X385039Y396850D02*
D03*
X393406Y397933D02*
D03*
X396621D02*
D03*
X399836D02*
D03*
X403051D02*
D03*
X406266D02*
D03*
X409482D02*
D03*
X382677Y401575D02*
D03*
X419127Y397933D02*
D03*
X422342D02*
D03*
X415912D02*
D03*
X412697D02*
D03*
X385039Y406299D02*
D03*
X382677Y411024D02*
D03*
X443799Y404626D02*
D03*
X455709D02*
D03*
X455707Y412903D02*
D03*
X430610Y414961D02*
D03*
X385039Y415748D02*
D03*
X437121Y417280D02*
D03*
X383858Y448819D02*
D03*
X441634Y445276D02*
D03*
X395669Y448819D02*
D03*
X407480D02*
D03*
X419291D02*
D03*
X431102D02*
D03*
X454724D02*
D03*
X485827Y468602D02*
D03*
X556496Y472441D02*
D03*
X503150Y377953D02*
D03*
X493701D02*
D03*
X498425D02*
D03*
X496063Y382677D02*
D03*
X500787D02*
D03*
X498425Y387402D02*
D03*
X493701D02*
D03*
X496063Y392126D02*
D03*
X493701Y396850D02*
D03*
X524213Y397736D02*
D03*
X508137D02*
D03*
X520997D02*
D03*
X511352D02*
D03*
X514567D02*
D03*
X504921D02*
D03*
X517782D02*
D03*
X493701Y406299D02*
D03*
Y415748D02*
D03*
X513779Y448819D02*
D03*
X501968D02*
D03*
X578740Y413386D02*
D03*
X540693Y417487D02*
D03*
X547260Y417675D02*
D03*
X549212Y448819D02*
D03*
X578740Y437008D02*
D03*
X556299Y448819D02*
D03*
X537401Y448819D02*
D03*
X572834D02*
D03*
X525590D02*
D03*
X565846Y413298D02*
D03*
X565551Y404921D02*
D03*
X553445D02*
D03*
X527428Y397736D02*
D03*
X530643D02*
D03*
X533858D02*
D03*
X530610Y162008D02*
D03*
X516240Y194980D02*
D03*
X516480Y187063D02*
D03*
X535066Y182686D02*
D03*
X538189Y194980D02*
D03*
X541634Y182874D02*
D03*
X543307Y153543D02*
D03*
X548917Y201772D02*
D03*
X552133D02*
D03*
X555118Y153543D02*
D03*
X555348Y201772D02*
D03*
X529626Y148622D02*
D03*
X578740Y153543D02*
D03*
X566929D02*
D03*
X585827Y184252D02*
D03*
X590551D02*
D03*
X588189Y188976D02*
D03*
X590551Y193701D02*
D03*
X585827D02*
D03*
X588189Y198425D02*
D03*
X568209Y201772D02*
D03*
X571424D02*
D03*
X574639D02*
D03*
X577854D02*
D03*
X558563D02*
D03*
X585827Y203150D02*
D03*
X590551D02*
D03*
X583465Y207874D02*
D03*
X588189D02*
D03*
X581102Y212598D02*
D03*
X585827D02*
D03*
X590551D02*
D03*
X564993Y201772D02*
D03*
X561778D02*
D03*
X590551Y222047D02*
D03*
X579724Y223622D02*
D03*
X578740Y226772D02*
D03*
X583465D02*
D03*
X588189D02*
D03*
X585827Y231496D02*
D03*
X590551D02*
D03*
X588189Y236221D02*
D03*
X578740Y217323D02*
D03*
X583465D02*
D03*
X588189D02*
D03*
X576378Y222047D02*
D03*
X585827D02*
D03*
X529626Y129429D02*
D03*
X419642Y151815D02*
D03*
X421457Y144685D02*
D03*
X421358Y129429D02*
D03*
X408957Y153346D02*
D03*
X425197Y172441D02*
D03*
X479528Y217323D02*
D03*
X468701Y221457D02*
D03*
X472441Y222047D02*
D03*
X477165D02*
D03*
X396358Y151378D02*
D03*
X389764Y153543D02*
D03*
X437008D02*
D03*
X448819D02*
D03*
X425476Y182533D02*
D03*
X432043Y182720D02*
D03*
X406890Y186909D02*
D03*
X404823Y194587D02*
D03*
X428543Y194882D02*
D03*
X389764Y198425D02*
D03*
X438779Y201673D02*
D03*
X441995D02*
D03*
X445210D02*
D03*
X448425D02*
D03*
X451640D02*
D03*
X460630Y153543D02*
D03*
X472441D02*
D03*
X477165Y193701D02*
D03*
X479528Y198425D02*
D03*
X454856Y201673D02*
D03*
X458071D02*
D03*
X461286D02*
D03*
X464501D02*
D03*
X467717D02*
D03*
X477165Y203150D02*
D03*
X389764Y207874D02*
D03*
X474803D02*
D03*
X479528D02*
D03*
X467717Y212598D02*
D03*
X472441D02*
D03*
X477165D02*
D03*
X389764Y217323D02*
D03*
X470079D02*
D03*
X474803D02*
D03*
X314567Y172539D02*
D03*
X310236Y137205D02*
D03*
Y149606D02*
D03*
X312992Y152657D02*
D03*
X277658Y164862D02*
D03*
X595276Y231496D02*
D03*
X597638Y226772D02*
D03*
X595276Y222047D02*
D03*
X597638Y217323D02*
D03*
X595276Y212598D02*
D03*
X597638Y207874D02*
D03*
X595276Y203150D02*
D03*
X597638Y198425D02*
D03*
X595276Y193701D02*
D03*
X597638Y188976D02*
D03*
X595276Y184252D02*
D03*
X592913Y236221D02*
D03*
Y226772D02*
D03*
Y217323D02*
D03*
Y207874D02*
D03*
Y198425D02*
D03*
Y188976D02*
D03*
X496063Y222047D02*
D03*
X498425Y217323D02*
D03*
X496063Y212598D02*
D03*
X498425Y207874D02*
D03*
X496063Y203150D02*
D03*
X498425Y198425D02*
D03*
X496063Y193701D02*
D03*
X491339Y411024D02*
D03*
Y401575D02*
D03*
Y392126D02*
D03*
Y382677D02*
D03*
Y222047D02*
D03*
X493701Y217323D02*
D03*
X491339Y212598D02*
D03*
X493701Y207874D02*
D03*
X491339Y203150D02*
D03*
X493701Y198425D02*
D03*
X491339Y193701D02*
D03*
X488976Y415748D02*
D03*
X486614Y411024D02*
D03*
X488976Y406299D02*
D03*
X486614Y401575D02*
D03*
X488976Y396850D02*
D03*
X486614Y392126D02*
D03*
X488976Y387402D02*
D03*
X486614Y382677D02*
D03*
X488976Y377953D02*
D03*
X486614Y222047D02*
D03*
X488976Y217323D02*
D03*
X486614Y212598D02*
D03*
X488976Y207874D02*
D03*
X486614Y203150D02*
D03*
X488976Y198425D02*
D03*
X486614Y193701D02*
D03*
X484252Y406299D02*
D03*
X481890Y401575D02*
D03*
X484252Y396850D02*
D03*
X481890Y392126D02*
D03*
X484252Y387402D02*
D03*
X481890Y382677D02*
D03*
X484252Y377953D02*
D03*
X481890Y222047D02*
D03*
X484252Y217323D02*
D03*
X481890Y212598D02*
D03*
X484252Y207874D02*
D03*
X481890Y203150D02*
D03*
X484252Y198425D02*
D03*
X481890Y193701D02*
D03*
X479528Y406299D02*
D03*
X477165Y401575D02*
D03*
X479528Y396850D02*
D03*
X477165Y392126D02*
D03*
X479528Y387402D02*
D03*
X477165Y382677D02*
D03*
X479528Y377953D02*
D03*
X474803Y406299D02*
D03*
Y396850D02*
D03*
Y387402D02*
D03*
X387402Y222047D02*
D03*
Y212598D02*
D03*
Y203150D02*
D03*
Y193701D02*
D03*
X382677Y222047D02*
D03*
X385039Y217323D02*
D03*
X382677Y212598D02*
D03*
X385039Y207874D02*
D03*
X382677Y203150D02*
D03*
X385039Y198425D02*
D03*
X382677Y193701D02*
D03*
X380315Y415748D02*
D03*
X377953Y411024D02*
D03*
X380315Y406299D02*
D03*
X377953Y401575D02*
D03*
X380315Y396850D02*
D03*
X377953Y392126D02*
D03*
X380315Y387402D02*
D03*
X377953Y382677D02*
D03*
X380315Y377953D02*
D03*
X377953Y222047D02*
D03*
X380315Y217323D02*
D03*
X377953Y212598D02*
D03*
X380315Y207874D02*
D03*
X377953Y203150D02*
D03*
X380315Y198425D02*
D03*
X377953Y193701D02*
D03*
X375591Y415748D02*
D03*
X373228Y411024D02*
D03*
X375591Y406299D02*
D03*
X373228Y401575D02*
D03*
X375591Y396850D02*
D03*
X373228Y392126D02*
D03*
X375591Y387402D02*
D03*
X373228Y382677D02*
D03*
X375591Y377953D02*
D03*
X373228Y222047D02*
D03*
X375591Y217323D02*
D03*
X373228Y212598D02*
D03*
X375591Y207874D02*
D03*
X373228Y203150D02*
D03*
X375591Y198425D02*
D03*
X373228Y193701D02*
D03*
X370866Y406299D02*
D03*
X368504Y401575D02*
D03*
X370866Y396850D02*
D03*
X368504Y392126D02*
D03*
X370866Y387402D02*
D03*
X368504Y382677D02*
D03*
X370866Y377953D02*
D03*
X368504Y222047D02*
D03*
X370866Y217323D02*
D03*
X368504Y212598D02*
D03*
X370866Y207874D02*
D03*
X368504Y203150D02*
D03*
X370866Y198425D02*
D03*
X368504Y193701D02*
D03*
X366142Y406299D02*
D03*
X363780Y401575D02*
D03*
X366142Y396850D02*
D03*
X363780Y392126D02*
D03*
X366142Y387402D02*
D03*
X363780Y382677D02*
D03*
X366142Y377953D02*
D03*
X363780Y222047D02*
D03*
X366142Y217323D02*
D03*
X363780Y212598D02*
D03*
X366142Y207874D02*
D03*
Y198425D02*
D03*
X361417Y396850D02*
D03*
X359055Y392126D02*
D03*
X361417Y387402D02*
D03*
X359055Y382677D02*
D03*
X361417Y217323D02*
D03*
X359055Y212598D02*
D03*
X356693Y217323D02*
D03*
X283465Y382677D02*
D03*
X278740Y392126D02*
D03*
X281102Y387402D02*
D03*
X278740Y382677D02*
D03*
X281102Y377953D02*
D03*
X274016Y439370D02*
D03*
X276378Y434646D02*
D03*
X274016Y429921D02*
D03*
X276378Y425197D02*
D03*
X274016Y420472D02*
D03*
X276378Y415748D02*
D03*
X274016Y411024D02*
D03*
X276378Y406299D02*
D03*
X274016Y401575D02*
D03*
X276378Y396850D02*
D03*
X274016Y392126D02*
D03*
X276378Y387402D02*
D03*
X274016Y382677D02*
D03*
X276378Y377953D02*
D03*
X271654Y444095D02*
D03*
X269291Y439370D02*
D03*
X271654Y434646D02*
D03*
X269291Y429921D02*
D03*
X271654Y425197D02*
D03*
X269291Y420472D02*
D03*
X271654Y415748D02*
D03*
X269291Y411024D02*
D03*
X271654Y406299D02*
D03*
X269291Y401575D02*
D03*
X271654Y396850D02*
D03*
X269291Y392126D02*
D03*
X271654Y387402D02*
D03*
X269291Y382677D02*
D03*
X271654Y377953D02*
D03*
X266929Y444095D02*
D03*
X264567Y439370D02*
D03*
X266929Y434646D02*
D03*
X264567Y429921D02*
D03*
X266929Y425197D02*
D03*
X264567Y420472D02*
D03*
X266929Y415748D02*
D03*
Y406299D02*
D03*
Y396850D02*
D03*
Y387402D02*
D03*
X262205Y444095D02*
D03*
X259842Y439370D02*
D03*
X262205Y434646D02*
D03*
X259842Y429921D02*
D03*
X262205Y425197D02*
D03*
X259842Y420472D02*
D03*
X257480Y444095D02*
D03*
X255118Y439370D02*
D03*
X257480Y434646D02*
D03*
X255118Y429921D02*
D03*
X257480Y425197D02*
D03*
X675295Y254134D02*
D03*
X686417Y305217D02*
D03*
X628839Y276673D02*
D03*
X358169Y224508D02*
D03*
X474016Y375984D02*
D03*
X360827Y376378D02*
D03*
X228346Y407637D02*
D03*
X231988D02*
D03*
Y404586D02*
D03*
X228346D02*
D03*
X248228D02*
D03*
X251870D02*
D03*
Y407637D02*
D03*
X248228D02*
D03*
X247736Y383326D02*
D03*
X251378D02*
D03*
Y386377D02*
D03*
X247736D02*
D03*
X228937Y383129D02*
D03*
X232579D02*
D03*
Y386181D02*
D03*
X228937D02*
D03*
X241831Y382834D02*
D03*
X238189D02*
D03*
X242224Y408031D02*
D03*
X238583D02*
D03*
X252559Y396712D02*
D03*
Y393070D02*
D03*
X227756Y397598D02*
D03*
Y393956D02*
D03*
X287566Y397638D02*
D03*
X290781D02*
D03*
X293996D02*
D03*
X297211D02*
D03*
X227756Y432972D02*
D03*
Y436614D02*
D03*
X252559Y432087D02*
D03*
Y435728D02*
D03*
X238583Y447047D02*
D03*
X242224D02*
D03*
X238189Y421850D02*
D03*
X241831D02*
D03*
X228937Y425197D02*
D03*
X232579D02*
D03*
Y422146D02*
D03*
X228937D02*
D03*
X247736Y425394D02*
D03*
X251378D02*
D03*
Y422342D02*
D03*
X247736D02*
D03*
X248228Y446654D02*
D03*
X251870D02*
D03*
Y443602D02*
D03*
X248228D02*
D03*
X228346D02*
D03*
X231988D02*
D03*
Y446654D02*
D03*
X228346D02*
D03*
X276673Y136909D02*
D03*
X559055Y492717D02*
D03*
X507677Y492913D02*
D03*
X426575D02*
D03*
X363976D02*
D03*
X310728Y493209D02*
D03*
X685039Y437008D02*
D03*
Y413386D02*
D03*
X673228Y437008D02*
D03*
X679134Y425197D02*
D03*
X673228Y318898D02*
D03*
Y224409D02*
D03*
Y200787D02*
D03*
X661417Y460630D02*
D03*
Y437008D02*
D03*
Y413386D02*
D03*
X667323Y307086D02*
D03*
X655512Y472441D02*
D03*
Y448819D02*
D03*
X649606Y437008D02*
D03*
X655512Y425197D02*
D03*
X649606Y413386D02*
D03*
X655512Y401575D02*
D03*
X649606Y389764D02*
D03*
X655512Y377953D02*
D03*
X649606Y366142D02*
D03*
X655512Y354331D02*
D03*
X649606Y318898D02*
D03*
X655512Y307086D02*
D03*
X649606Y224409D02*
D03*
Y177165D02*
D03*
Y153543D02*
D03*
X637795Y484252D02*
D03*
Y460630D02*
D03*
X643701Y448819D02*
D03*
X637795Y437008D02*
D03*
X643701Y425197D02*
D03*
X637795Y413386D02*
D03*
X643701Y401575D02*
D03*
X637795Y389764D02*
D03*
X643701Y377953D02*
D03*
X637795Y366142D02*
D03*
X643701Y354331D02*
D03*
Y307086D02*
D03*
Y236220D02*
D03*
X637795Y224409D02*
D03*
X643701Y188976D02*
D03*
Y165354D02*
D03*
X637795Y106299D02*
D03*
X631890Y472441D02*
D03*
X625984Y460630D02*
D03*
X631890Y448819D02*
D03*
X625984Y106299D02*
D03*
X620079Y472441D02*
D03*
X614173Y460630D02*
D03*
X620079Y141732D02*
D03*
X614173Y106299D02*
D03*
X608267Y472441D02*
D03*
X602362Y413386D02*
D03*
Y389764D02*
D03*
Y366142D02*
D03*
Y342520D02*
D03*
X608267Y165354D02*
D03*
X602362Y106299D02*
D03*
X590551Y437008D02*
D03*
Y413386D02*
D03*
X596456Y401575D02*
D03*
Y377953D02*
D03*
Y354331D02*
D03*
Y330709D02*
D03*
Y307086D02*
D03*
Y283465D02*
D03*
Y259842D02*
D03*
X590551Y106299D02*
D03*
X578740D02*
D03*
X566929D02*
D03*
X555118D02*
D03*
X543307D02*
D03*
X531496D02*
D03*
X519685D02*
D03*
X507874D02*
D03*
X496063Y153543D02*
D03*
Y106299D02*
D03*
X490157Y448819D02*
D03*
X484252Y153543D02*
D03*
Y106299D02*
D03*
X478346Y448819D02*
D03*
X472441Y106299D02*
D03*
X460630D02*
D03*
X448819D02*
D03*
X437008D02*
D03*
X425197D02*
D03*
X413386D02*
D03*
X401575D02*
D03*
X395669Y118110D02*
D03*
X389764Y106299D02*
D03*
X377953Y153543D02*
D03*
X383858Y118110D02*
D03*
X377953Y106299D02*
D03*
X372047Y448819D02*
D03*
X366142Y153543D02*
D03*
X372047Y118110D02*
D03*
X366142Y106299D02*
D03*
X360236Y472441D02*
D03*
Y425197D02*
D03*
X354331Y153543D02*
D03*
X360236Y118110D02*
D03*
X354331Y106299D02*
D03*
X348425Y472441D02*
D03*
X342520Y153543D02*
D03*
X348425Y118110D02*
D03*
X342520Y106299D02*
D03*
X330709Y460630D02*
D03*
X336614Y425197D02*
D03*
X330709Y153543D02*
D03*
X336614Y118110D02*
D03*
X330709Y106299D02*
D03*
X324803Y472441D02*
D03*
X318898Y460630D02*
D03*
X324803Y118110D02*
D03*
X318898Y106299D02*
D03*
X312992Y472441D02*
D03*
Y118110D02*
D03*
X307086Y106299D02*
D03*
X301181Y472441D02*
D03*
Y118110D02*
D03*
X295275Y106299D02*
D03*
X283465Y484252D02*
D03*
X289370Y118110D02*
D03*
X283465Y106299D02*
D03*
X271654Y484252D02*
D03*
X277559Y188976D02*
D03*
Y118110D02*
D03*
X271654Y106299D02*
D03*
X259842Y484252D02*
D03*
X265748Y472441D02*
D03*
X259842Y460630D02*
D03*
X265748Y141732D02*
D03*
X259842Y129921D02*
D03*
X265748Y118110D02*
D03*
X248031Y200787D02*
D03*
X236220D02*
D03*
X242126Y188976D02*
D03*
Y165354D02*
D03*
X598819Y479724D02*
D03*
X602264D02*
D03*
X616142Y171260D02*
D03*
X278543Y192126D02*
D03*
X649114Y156595D02*
D03*
X679134Y306693D02*
D03*
X628642Y326181D02*
D03*
X602559Y362697D02*
D03*
X607972Y238189D02*
D03*
X588681Y419488D02*
D03*
X652264Y200394D02*
D03*
X652362Y198031D02*
D03*
X683465Y349705D02*
D03*
X659449Y237205D02*
D03*
Y239370D02*
D03*
X653445Y173721D02*
D03*
X685728Y299016D02*
D03*
X624606Y303012D02*
D03*
X622303Y305440D02*
D03*
X633887Y312507D02*
D03*
X620768Y296850D02*
D03*
X600984Y297047D02*
D03*
X656398Y331693D02*
D03*
Y334154D02*
D03*
X649508Y331594D02*
D03*
X647638Y313976D02*
D03*
X685827Y302559D02*
D03*
X600984Y294882D02*
D03*
X682087Y261614D02*
D03*
X682382Y280118D02*
D03*
X686713Y293701D02*
D03*
X677067Y284154D02*
D03*
X574409Y472441D02*
D03*
X633268Y345177D02*
D03*
X636713Y344783D02*
D03*
X636516Y331496D02*
D03*
X633208Y332002D02*
D03*
X631771Y315099D02*
D03*
X623130Y275984D02*
D03*
X627854Y345669D02*
D03*
X629724Y345768D02*
D03*
X636195Y220965D02*
D03*
X639862Y234646D02*
D03*
X634547Y234449D02*
D03*
X638196Y214075D02*
D03*
X619882Y214247D02*
D03*
X652461Y262205D02*
D03*
X649705Y264961D02*
D03*
X629724Y253051D02*
D03*
X626083Y257185D02*
D03*
X621850Y260725D02*
D03*
X613681Y440059D02*
D03*
X358957Y457382D02*
D03*
X603248Y333661D02*
D03*
X485827Y454626D02*
D03*
X600970Y427348D02*
D03*
X251575Y159941D02*
D03*
X259646Y186614D02*
D03*
X251476Y189567D02*
D03*
X507185Y144671D02*
D03*
X620768Y294587D02*
D03*
X359350Y463287D02*
D03*
X396358Y133760D02*
D03*
X294408Y144488D02*
D03*
X294390Y133858D02*
D03*
X593504Y151083D02*
D03*
X590748D02*
D03*
X598425Y151673D02*
D03*
X623622Y336024D02*
D03*
X603248Y336122D02*
D03*
X607074Y251661D02*
D03*
X618952Y263145D02*
D03*
X666437Y273622D02*
D03*
X679232Y230020D02*
D03*
X675591Y236713D02*
D03*
X667126Y237894D02*
D03*
X654626Y246260D02*
D03*
X637303Y244882D02*
D03*
X605905Y147047D02*
D03*
X606102Y152362D02*
D03*
X608062Y319104D02*
D03*
X653937Y277756D02*
D03*
X619685Y314370D02*
D03*
X620177Y319193D02*
D03*
X606693Y308169D02*
D03*
X616411Y308097D02*
D03*
X612106Y314567D02*
D03*
X624114Y340748D02*
D03*
X624213Y343110D02*
D03*
X606398Y340748D02*
D03*
X600886Y151673D02*
D03*
X606398Y343110D02*
D03*
X648819Y250787D02*
D03*
X655610Y263976D02*
D03*
X622736Y220768D02*
D03*
X669193Y252165D02*
D03*
X633711Y249262D02*
D03*
X377165Y458268D02*
D03*
Y468602D02*
D03*
X350459Y202362D02*
D03*
X356890D02*
D03*
X347244D02*
D03*
X353675D02*
D03*
X344029D02*
D03*
X340814D02*
D03*
X337598D02*
D03*
X334383D02*
D03*
X295374Y195768D02*
D03*
X318209D02*
D03*
X327953Y202362D02*
D03*
X331168D02*
D03*
X321665Y182862D02*
D03*
X315098Y182674D02*
D03*
X296512Y187051D02*
D03*
X653248Y232874D02*
D03*
X644488Y281004D02*
D03*
X251450Y144124D02*
D03*
X251520Y140574D02*
D03*
X609646Y275787D02*
D03*
X675689Y350590D02*
D03*
X675787Y352953D02*
D03*
X675689Y347933D02*
D03*
X629626Y291929D02*
D03*
X672760Y324926D02*
D03*
X633601Y151627D02*
D03*
X644736Y134506D02*
D03*
X284350Y397638D02*
D03*
X313287D02*
D03*
X310072D02*
D03*
X306857D02*
D03*
X303642D02*
D03*
X300427D02*
D03*
X655118Y289567D02*
D03*
X682523Y455807D02*
D03*
X674354Y449311D02*
D03*
Y456201D02*
D03*
X682425Y449311D02*
D03*
X630118Y480807D02*
D03*
X622047Y487697D02*
D03*
Y480807D02*
D03*
X630217Y487303D02*
D03*
X660532Y352067D02*
D03*
Y348721D02*
D03*
X346850Y404626D02*
D03*
X334055D02*
D03*
X320614Y417221D02*
D03*
X345768Y413032D02*
D03*
X327182Y417409D02*
D03*
X332382Y447441D02*
D03*
X665256Y303346D02*
D03*
X293957Y473622D02*
D03*
X293859Y469882D02*
D03*
X295532Y463287D02*
D03*
X277619Y470374D02*
D03*
Y473721D02*
D03*
X278308Y462894D02*
D03*
Y459547D02*
D03*
X678642Y414862D02*
D03*
Y411516D02*
D03*
X660433Y356791D02*
D03*
Y360138D02*
D03*
M02*
