G04*
G04 #@! TF.GenerationSoftware,Altium Limited,Altium Designer,22.5.1 (42)*
G04*
G04 Layer_Color=32896*
%FSLAX25Y25*%
%MOIN*%
G70*
G04*
G04 #@! TF.SameCoordinates,F388C647-0276-4BD7-974E-F153A5A87125*
G04*
G04*
G04 #@! TF.FilePolarity,Positive*
G04*
G01*
G75*
%ADD11C,0.00787*%
%ADD12C,0.00394*%
%ADD13C,0.00591*%
%ADD14C,0.01181*%
%ADD102R,0.08386X0.01575*%
D11*
X654159Y201567D02*
X654159Y196055D01*
X666262D02*
Y201567D01*
D12*
X283977Y473209D02*
X285080Y473209D01*
Y460020D02*
Y473209D01*
X284016Y460020D02*
X285080D01*
X276575Y473248D02*
X277520D01*
X276497Y473169D02*
X276575Y473248D01*
X276497Y473169D02*
X276497Y467539D01*
X276497Y460295D01*
X276654Y460138D01*
X277599D01*
X657086Y170833D02*
X655118D01*
Y169849D01*
X655446Y169521D01*
X656102D01*
X656430Y169849D01*
Y170833D01*
Y170176D02*
X657086Y169521D01*
X655118Y167553D02*
Y168865D01*
X656102D01*
X655774Y168209D01*
Y167881D01*
X656102Y167553D01*
X656758D01*
X657086Y167881D01*
Y168537D01*
X656758Y168865D01*
X655118Y165585D02*
X655446Y166241D01*
X656102Y166897D01*
X656758D01*
X657086Y166569D01*
Y165913D01*
X656758Y165585D01*
X656430D01*
X656102Y165913D01*
Y166897D01*
X579134Y488647D02*
X577166D01*
Y487664D01*
X577494Y487335D01*
X578150D01*
X578478Y487664D01*
Y488647D01*
Y487992D02*
X579134Y487335D01*
X577166Y485368D02*
Y486680D01*
X578150D01*
X577822Y486024D01*
Y485696D01*
X578150Y485368D01*
X578806D01*
X579134Y485696D01*
Y486352D01*
X578806Y486680D01*
X579134Y483728D02*
X577166D01*
X578150Y484712D01*
Y483400D01*
X595866Y488155D02*
X593898D01*
Y487171D01*
X594226Y486843D01*
X594882D01*
X595210Y487171D01*
Y488155D01*
Y487499D02*
X595866Y486843D01*
X593898Y484875D02*
Y486187D01*
X594882D01*
X594554Y485532D01*
Y485204D01*
X594882Y484875D01*
X595538D01*
X595866Y485204D01*
Y485859D01*
X595538Y486187D01*
X594226Y484220D02*
X593898Y483892D01*
Y483236D01*
X594226Y482908D01*
X594554D01*
X594882Y483236D01*
Y483564D01*
Y483236D01*
X595210Y482908D01*
X595538D01*
X595866Y483236D01*
Y483892D01*
X595538Y484220D01*
X608618Y486876D02*
X606650D01*
Y485892D01*
X606978Y485564D01*
X607634D01*
X607962Y485892D01*
Y486876D01*
Y486220D02*
X608618Y485564D01*
X606650Y483596D02*
Y484908D01*
X607634D01*
X607306Y484252D01*
Y483924D01*
X607634Y483596D01*
X608290D01*
X608618Y483924D01*
Y484580D01*
X608290Y484908D01*
X608618Y481628D02*
Y482940D01*
X607306Y481628D01*
X606978D01*
X606650Y481956D01*
Y482612D01*
X606978Y482940D01*
X667447Y206069D02*
X669087D01*
X669415Y205741D01*
Y205085D01*
X669087Y204757D01*
X667447D01*
X669087Y204101D02*
X669415Y203773D01*
Y203117D01*
X669087Y202789D01*
X667775D01*
X667447Y203117D01*
Y203773D01*
X667775Y204101D01*
X668103D01*
X668431Y203773D01*
Y202789D01*
X654100Y187697D02*
Y189665D01*
X653116D01*
X652788Y189337D01*
Y188681D01*
X653116Y188353D01*
X654100D01*
X653444D02*
X652788Y187697D01*
X652132Y189337D02*
X651804Y189665D01*
X651148D01*
X650820Y189337D01*
Y189009D01*
X651148Y188681D01*
X651476D01*
X651148D01*
X650820Y188353D01*
Y188025D01*
X651148Y187697D01*
X651804D01*
X652132Y188025D01*
X650165Y189665D02*
X648853D01*
Y189337D01*
X650165Y188025D01*
Y187697D01*
X642486Y201280D02*
Y203248D01*
X641502D01*
X641174Y202920D01*
Y202264D01*
X641502Y201936D01*
X642486D01*
X641830D02*
X641174Y201280D01*
X640518Y202920D02*
X640190Y203248D01*
X639534D01*
X639206Y202920D01*
Y202592D01*
X639534Y202264D01*
X639862D01*
X639534D01*
X639206Y201936D01*
Y201608D01*
X639534Y201280D01*
X640190D01*
X640518Y201608D01*
X637238Y203248D02*
X637894Y202920D01*
X638550Y202264D01*
Y201608D01*
X638222Y201280D01*
X637566D01*
X637238Y201608D01*
Y201936D01*
X637566Y202264D01*
X638550D01*
X643077Y205217D02*
Y207185D01*
X642093D01*
X641765Y206857D01*
Y206201D01*
X642093Y205873D01*
X643077D01*
X642421D02*
X641765Y205217D01*
X641109Y206857D02*
X640781Y207185D01*
X640125D01*
X639797Y206857D01*
Y206529D01*
X640125Y206201D01*
X640453D01*
X640125D01*
X639797Y205873D01*
Y205545D01*
X640125Y205217D01*
X640781D01*
X641109Y205545D01*
X639141Y206857D02*
X638813Y207185D01*
X638157D01*
X637829Y206857D01*
Y206529D01*
X638157Y206201D01*
X638485D01*
X638157D01*
X637829Y205873D01*
Y205545D01*
X638157Y205217D01*
X638813D01*
X639141Y205545D01*
X653444Y215911D02*
X651477D01*
Y214927D01*
X651805Y214599D01*
X652461D01*
X652789Y214927D01*
Y215911D01*
Y215255D02*
X653444Y214599D01*
X651805Y213943D02*
X651477Y213615D01*
Y212959D01*
X651805Y212631D01*
X652133D01*
X652461Y212959D01*
Y213287D01*
Y212959D01*
X652789Y212631D01*
X653117D01*
X653444Y212959D01*
Y213615D01*
X653117Y213943D01*
X653444Y210664D02*
Y211976D01*
X652133Y210664D01*
X651805D01*
X651477Y210992D01*
Y211648D01*
X651805Y211976D01*
X679724Y278608D02*
X677756D01*
Y277624D01*
X678084Y277296D01*
X678740D01*
X679068Y277624D01*
Y278608D01*
Y277952D02*
X679724Y277296D01*
Y275328D02*
Y276640D01*
X678412Y275328D01*
X678084D01*
X677756Y275656D01*
Y276312D01*
X678084Y276640D01*
Y274672D02*
X677756Y274344D01*
Y273688D01*
X678084Y273360D01*
X678412D01*
X678740Y273688D01*
X679068Y273360D01*
X679396D01*
X679724Y273688D01*
Y274344D01*
X679396Y274672D01*
X679068D01*
X678740Y274344D01*
X678412Y274672D01*
X678084D01*
X678740Y274344D02*
Y273688D01*
X674705Y137534D02*
X676673D01*
Y138518D01*
X676345Y138846D01*
X675689D01*
X675361Y138518D01*
Y137534D01*
Y138190D02*
X674705Y138846D01*
Y140813D02*
Y139502D01*
X676017Y140813D01*
X676345D01*
X676673Y140486D01*
Y139830D01*
X676345Y139502D01*
X676673Y141469D02*
Y142781D01*
X676345D01*
X675033Y141469D01*
X674705D01*
X681742Y255083D02*
X682669Y254155D01*
X681973Y253460D01*
X681510Y253924D01*
X681973Y253460D01*
X681278Y252764D01*
Y255547D02*
X679886Y254155D01*
X679190Y254851D01*
Y255315D01*
X679422Y255547D01*
X679886D01*
X680582Y254851D01*
X679886Y255547D01*
Y256011D01*
X680118Y256243D01*
X680582D01*
X681278Y255547D01*
X677567Y256474D02*
X678495Y255547D01*
Y257402D01*
X678727Y257634D01*
X679190D01*
X679654Y257170D01*
Y256706D01*
X658300Y212861D02*
X658628Y213189D01*
X659284D01*
X659612Y212861D01*
Y211549D01*
X659284Y211221D01*
X658628D01*
X658300Y211549D01*
X657644Y212861D02*
X657316Y213189D01*
X656660D01*
X656332Y212861D01*
Y212533D01*
X656660Y212205D01*
X656988D01*
X656660D01*
X656332Y211877D01*
Y211549D01*
X656660Y211221D01*
X657316D01*
X657644Y211549D01*
X655676Y213189D02*
X654364D01*
Y212861D01*
X655676Y211549D01*
Y211221D01*
X664723Y212565D02*
X665051Y212893D01*
X665707D01*
X666035Y212565D01*
Y211253D01*
X665707Y210926D01*
X665051D01*
X664723Y211253D01*
X664067Y212565D02*
X663739Y212893D01*
X663083D01*
X662755Y212565D01*
Y212237D01*
X663083Y211909D01*
X663411D01*
X663083D01*
X662755Y211581D01*
Y211253D01*
X663083Y210926D01*
X663739D01*
X664067Y211253D01*
X660787Y212893D02*
X661443Y212565D01*
X662099Y211909D01*
Y211253D01*
X661771Y210926D01*
X661115D01*
X660787Y211253D01*
Y211581D01*
X661115Y211909D01*
X662099D01*
X667014Y245444D02*
X666550Y245444D01*
X666086Y245908D01*
X666086Y246372D01*
X667014Y247299D01*
X667478D01*
X667942Y246836D01*
Y246372D01*
X667478Y244980D02*
X667478Y244516D01*
X667942Y244053D01*
X668405D01*
X668637Y244285D01*
Y244748D01*
X668405Y244980D01*
X668637Y244748D01*
X669101D01*
X669333Y244980D01*
Y245444D01*
X668869Y245908D01*
X668405D01*
X670957Y243821D02*
X670029Y244748D01*
Y242893D01*
X669797Y242661D01*
X669333D01*
X668869Y243125D01*
Y243589D01*
X644573Y272905D02*
X644109Y272905D01*
X643645Y273369D01*
X643645Y273832D01*
X644573Y274760D01*
X645037D01*
X645501Y274296D01*
Y273832D01*
X647124Y272673D02*
X646197Y273601D01*
Y271745D01*
X645965Y271513D01*
X645501D01*
X645037Y271977D01*
X645037Y272441D01*
X647356Y271977D02*
X647820D01*
X648284Y271513D01*
Y271049D01*
X647356Y270122D01*
X646892D01*
X646428Y270586D01*
Y271049D01*
X646660Y271281D01*
X647124D01*
X647820Y270586D01*
X659337Y287767D02*
X658873Y287767D01*
X658409Y288231D01*
X658409Y288695D01*
X659337Y289622D01*
X659801D01*
X660264Y289158D01*
Y288695D01*
X661888Y287535D02*
X660960Y288463D01*
Y286607D01*
X660728Y286375D01*
X660264D01*
X659801Y286839D01*
X659801Y287303D01*
X661192Y285912D02*
Y285448D01*
X661656Y284984D01*
X662120D01*
X662352Y285216D01*
Y285680D01*
X662120Y285912D01*
X662352Y285680D01*
X662816D01*
X663048Y285912D01*
Y286375D01*
X662584Y286839D01*
X662120D01*
X288150Y470014D02*
X286182D01*
Y470998D01*
X286510Y471326D01*
X287822D01*
X288150Y470998D01*
Y470014D01*
X287822Y471981D02*
X288150Y472309D01*
Y472965D01*
X287822Y473293D01*
X287494D01*
X287166Y472965D01*
Y472638D01*
Y472965D01*
X286838Y473293D01*
X286510D01*
X286182Y472965D01*
Y472309D01*
X286510Y471981D01*
X638347Y242361D02*
X638347Y242825D01*
X638811Y243288D01*
X639274Y243288D01*
X640202Y242361D01*
Y241897D01*
X639738Y241433D01*
X639274D01*
X638811Y240969D02*
Y240505D01*
X638347Y240041D01*
X637883D01*
X636955Y240969D01*
Y241433D01*
X637419Y241897D01*
X637883Y241897D01*
X638115Y241665D01*
Y241201D01*
X637419Y240505D01*
X637883Y239114D02*
X636955Y238186D01*
X633940Y238418D02*
X634636Y238650D01*
X635564Y238650D01*
X636028Y238186D01*
Y237722D01*
X635564Y237259D01*
X635100D01*
X634868Y237491D01*
Y237954D01*
X635564Y238650D01*
X632898Y246164D02*
X632898Y246628D01*
X633362Y247092D01*
X633826Y247092D01*
X634754Y246164D01*
Y245700D01*
X634290Y245236D01*
X633826D01*
X633362Y244773D02*
Y244309D01*
X632898Y243845D01*
X632435D01*
X631507Y244773D01*
Y245236D01*
X631971Y245700D01*
X632435Y245700D01*
X632666Y245468D01*
Y245005D01*
X631971Y244309D01*
X632435Y242917D02*
X631507Y241990D01*
X630811Y241758D02*
X630347Y241294D01*
X630579Y241526D01*
X629188Y242917D01*
X629651Y242917D01*
D13*
X675356Y249888D02*
X678905Y253438D01*
D14*
X652658Y208760D02*
X653182D01*
Y209285D01*
X652658D01*
Y208760D01*
D102*
X280847Y469389D02*
D03*
M02*
