M48
;Layer_Color=9474304
;FILE_FORMAT=2:4
INCH,TZ
;TYPE=PLATED
T1F00S00C0.0118
T2F00S00C0.0197
T3F00S00C0.0394
T4F00S00C0.0472
T5F00S00C0.0551
T6F00S00C0.0669
T7F00S00C0.1260
%
T01
X27165Y10630
X28346
X29528
X30709
X30118Y11811
X28937
X27756
X26575
X25984Y12992
X26575Y14173
X25152Y14057
X25145Y14412
X27667Y13691
X29439Y13386
X29441Y14449
X31024Y14961
Y13720
X31299Y15266
X33071Y15354
X34252
X35433
X36614
X37795
X38976
X39636Y15138
X40896Y15335
X41964Y15181
X42146Y14468
X42136Y12943
X42520Y10630
X43701
X44882
X46063
Y15354
X44882
X43701
X39636Y13376
X39567Y11811
X38386
X37205
X36024
X34843
X33661
X32480
X31299
X31890Y10630
X33071
X34252
X35433
X36614
X37795
X38976
X40157
X41339
X47244
X48425
X49606
X50787
X51968
X53150
X54331
X55512
X56693
X57874
X59055
X60236
X61417
X60089Y12815
X59852Y12813
X59321Y12943
X59075
Y15108
X59350
X59843Y15167
X60089
X60610Y15236
X60591Y14705
X62008Y14173
X57874Y15354
X56693
X55512
X54331
X52963Y14862
Y12943
X50718Y12628
Y14467
X49606Y15354
X48425
X47244
X63360Y15163
X64961Y15354
X64990Y13465
X64961Y13248
X64474Y13451
X63780Y10630
X62598
X67333Y14478
X67913Y16535
X65344Y17372
X64961Y17717
X64370Y18898
X65236Y19803
X65226Y20039
X67323Y20079
Y22441
X67923Y23002
X67559Y23671
X66713Y23789
X65945Y23720
Y23937
X65463Y24626
X64882Y25079
X65246Y26220
X65561Y26398
X64970Y26496
X65394Y27776
X64449Y28100
X65512Y28957
X65551Y30709
X66732
X66526Y30335
X67913Y30669
X68642Y30522
X68583Y30256
X68573Y29902
X68671Y29370
X68238Y28012
X67707Y28415
X66644Y27362
X66919Y25217
X67530Y25413
X68209Y26161
X65325Y23287
X64961Y22441
X63780
X63619Y22096
X63820Y21407
X63986Y23465
X64370Y23622
X63455Y23445
X63730Y24488
X63371Y24926
X62972Y25305
X62608Y25719
X62884Y27667
X62963Y29193
X64370Y30709
Y16535
X64911Y15659
X61614Y17126
X60827Y16535
X59528Y18425
X59055
X58583
X58819Y18898
X59291
X59764
X59528Y19370
X59055
X58583
X58819Y19843
X59291
X59764
X59528Y20315
X59055
X58583
X58819Y20787
X58346
X58110Y21260
X58583
X59055
X59528
X59764Y21732
X59291
X58819
X58346
X57874
X57638Y22205
X57972Y22362
X57874Y22677
X58346
X58819
X59291
X59764
X59528Y23150
X59055
X58583
X58819Y23622
X59291
X59055Y22205
X58583
X59528
X59764Y20787
X59291
X57785Y20177
X57464
X57142
X56821
X56499
X56178
X55856
X55535
X55213
X54892
X53819Y19498
X53507Y18269
X54163Y18287
X53502Y17514
X53061Y16201
X51648Y18706
X51624Y19498
X49843Y19843
X49370
X48898
X48425
X47953
X47717Y19370
X48189
X48661
X49134
X49606
Y20315
X49134
X48661
X48189
X47717
X47953Y20787
X47480
X47244Y21260
X47717
X48189
X48661
X49134
X49606
X49843Y21732
X49370
X48898
X48425
X47953
X47480
X47008
X47244Y22205
X47717
X48189
X48661
X49134
X49606
X49843Y20787
X49370
X48898
X48425
X61988Y21425
X62274Y22077
X60797Y23819
X60707Y25166
X59646Y25984
Y28346
X60098Y29488
Y29705
X59646Y30709
X60669Y30817
X61641Y30810
X62230Y30544
X62461Y30301
X62077Y29685
Y29459
X62313Y27598
X60965Y27579
X61895Y26315
X62185Y26072
X46870Y22146
X46772Y21260
X46772Y20167
X46450
X46129
X45807
X45486
X45164
X44843
X44521
X44199
X43878
X42854Y19488
X42548Y18253
X43204Y18272
X42520Y17244
X40689Y18691
X40482Y19459
X38740Y19370
X38268
X37795
X37323
X36850
X37087Y19843
X37559
X38031
X38504
X38976
X38740Y20315
X38268
X37795
X37323
X36850
X37087Y20787
X37559
X38031
X38504
X38976
X38740Y21260
X38268
X37795
X37323
X36850
X36378
X35906
X36142Y21732
X36614
X37087
X37559
X38031
X38504
X38976
X38740Y22205
X38268
X37795
X37323
X36850
X36378
X35817Y22451
X35669Y21732
X35689Y20236
X35367
X35046
X34724
X34403
X34081
X33760
X33438
X33117
X32795
X31821Y19577
X31510Y18267
X32167Y18286
X31457Y17254
X36614Y19843
Y20787
X29537Y19577
X29651Y18705
X27756Y18898
X27854Y19213
X25965Y18661
X25148Y18957
X24213Y18898
X24803Y20079
X23622
X24213Y16535
X25157Y15994
X27766Y16486
X27638Y37795
X28110
X27874Y38268
X28346
X28110Y38740
X27638
X27165
X26693
X26929Y39213
X27402
X27874
X27638Y39685
X27165
X26693
X26929Y40157
X27402
X27638Y40630
X27165
X26693
X26929Y41102
X27402
X27638Y41575
X27165
X26693
X26457Y42047
X26929
X27402
X27638Y42520
X27165
X26693
X26220
X25748
X25138Y42539
Y42234
X24774
Y42539
X24183Y42185
X23819
X23258Y42215
Y42520
X22894
Y42215
X22776Y43297
Y43661
X22835Y44360
Y44665
X23199
Y44360
X23858Y44705
X24222
X24823Y44665
Y44360
X25187
Y44665
X25748Y44409
X26220
X26693
X27165
X26929Y43937
X27402
X27638Y43465
X27165
X26693
X26220
X25748
X25256Y43573
Y43209
X25512Y42992
X25984
X26457
X26929
X27402
X26457Y43937
X25984
X25512
X25984Y42047
X25187Y40764
Y40459
X24823
Y40764
X24222Y40803
X23858
X23199Y40764
Y40459
X22835
Y40764
X22776Y39760
Y39396
X22894Y38618
Y38313
X23258
Y38618
X23819Y38283
X24183
X24774Y38333
Y38638
X25138
Y38333
X25256Y39307
Y39671
X26929Y38268
X27402
X27165Y37795
X28435Y39764
X28757
X29078
X29400
X29721
X30043
X30364
X30686
X31007
X29553Y46329
X27831Y46289
Y45955
X25984Y46063
X31890
X33071
X33671Y46299
Y46870
X33238Y44744
X32746Y42726
X32718Y41741
X32061Y41722
X33661Y42520
X34577Y41303
X34685Y40463
X33406
X31329Y39764
X36142Y39685
X36614
X37087
X37559
X38031
X38504
X38268Y39213
X38740
X38976Y38740
X38504
X38031
X37559
X37087
X36614
X36142
X35906Y39213
X36378
X36850
X37323
X37795
Y40157
X38268
X38504Y40630
X38031
X37559
X37087
X36614
X36378Y40157
X36850
X37323
Y41102
X37795
X38268
X38504Y41575
X38031
X37559
X36024Y42520
X35896Y45738
X35935Y46329
X37717Y45827
Y46860
X37205Y44882
X38386
X39567
X40748
X41929
X43110
X44163Y44528
X44341Y45866
X45472Y44882
X45571Y41290
X45571Y40463
X44380
X43712Y41728
X43061Y41496
X43701Y42717
X42234Y39793
X41913
X41591
X41270
X40948
X40627
X40305
X39984
X39662
X39341
X39449Y38740
X39213Y38268
X38740
X38268
X37795
X37323
X36850
X36378
X35906
X36083Y37638
X36614Y37795
X37087
X37559
X38031
X38504
X38976
X39449
X47402Y37598
X47953Y37795
X48425
X48898
X49370
X49843
X50315
X50079Y38268
X49606
X49134
X48661
X48189
X47717
X47953Y38740
X48425
X48898
X49370
X49843
X49606Y39213
X49134
X48661
X48189
X47717
X47953Y39685
X48425
X48898
X49370
X49134Y40157
X48661
X48189
X47717
X47953Y40630
X48425
X48898
X49370
X49134Y41102
X48661
X48898Y41575
X49370
X47480Y40630
Y39685
Y38740
X50492Y39774
X50814
X51135
X51457
X51778
X52100
X52421
X52743
X53064
X53386
X54069Y41749
X54726Y41767
X54744Y42766
X54921Y44882
X55630Y44882
X57283Y44882
X57874Y43701
X59055
X58868Y41949
X59055Y41339
X57874
X56585Y41330
X56555Y40492
X55344
X59646Y40157
X60236Y41339
X60097Y42735
X61368Y44006
X61417Y46063
X60236Y38976
X59646Y37795
X60236Y36614
X60256Y36270
X59646Y35433
X60236Y34252
X60640Y34311
Y34075
X60325Y33612
Y33366
X59646Y33071
X60806Y31910
X61211Y31457
X61968Y31437
X62018Y31919
X62362Y33437
Y33602
X62411Y34075
X62421Y34311
X53740Y44882
X52559
X51378
X50197
X49016
X48583Y45463
X47835Y44882
X48583Y46860
X62598Y46063
X63780
X64370Y44882
X65551
X66142Y46063
X67435Y45620
Y44931
X68243
X68252Y45581
X68504Y43701
X67323
X66142
X64961
X63780
X64370Y42520
X65551
X66142Y41339
X64961
X63780
X64370Y40157
X65551
X64961Y38976
X63780
X64370Y37795
X65551
X64961Y36614
X63780
X64370Y35433
X65551
X66053Y35207
Y34872
X66043Y35679
Y36014
X67579Y35295
X67569Y35059
Y34793
X68346Y34970
X67276Y32493
X67323Y31890
X64961
X64764Y31398
X63389Y31251
X63177Y31510
X62864Y32618
X63321Y33200
X63652Y33150
X64951Y33159
X65640Y33169
Y33415
X63671Y34478
X63327Y34518
X62972Y34577
X62785Y34567
X63189Y44882
X67913Y42520
X67864Y41486
Y41152
X68504Y41339
X65551Y47244
X63189
X63012Y48081
X63022Y48730
X63780Y48425
X62205Y48081
Y48770
X62008Y47244
X60827
X60226Y47972
X59882
X57441Y47244
X55650Y47244
X55906Y49272
X52372Y47785
X50768Y49291
X46240Y47766
X44350Y47224
X41417Y47854
X42657Y49291
X36398
X36024Y47244
X34843
X32480
X31299
X30118
X29396Y47362
X29386Y46988
X27762Y47037
Y47372
X26575Y47244
X27165Y48425
X28346
X25984
X31073Y49321
T02
X23740Y15428
X26575Y15386
Y15886
Y16843
Y17343
X23721Y17451
X23721Y16951
X23740Y15928
X26870Y23209
T03
X66043Y14014
X67043Y15014
X68622Y14844
Y13844
Y15844
Y16844
Y17844
Y18844
X66043Y16014
X27266Y46116
X57431Y49341
X58431
X59547Y49331
X60547
X27266Y47116
T04
X64636Y19526
Y21416
X67195
Y19526
T05
X67844Y43307
Y45276
X64569Y48425
X62601
T06
X51924Y21708
X54074
X56224
X45265Y21693
X43115
X40965
X34227Y21707
X32077
X29927
X29972Y38307
X32122
X34272
X40965
X43115Y38307
X45265Y38307
X51957
X54107Y38307
X56257
T07
X24016Y39523
Y43449
M30
